<?xml version="1.0" encoding="UTF-8" standalone="no"?><!DOCTYPE svg PUBLIC "-//W3C//DTD SVG 1.1//EN" "http://www.w3.org/Graphics/SVG/1.1/DTD/svg11.dtd"><svg width="100%" height="100%" viewBox="0 0 64 64" version="1.1" xmlns="http://www.w3.org/2000/svg" xmlns:xlink="http://www.w3.org/1999/xlink" xml:space="preserve" xmlns:serif="http://www.serif.com/" style="fill-rule:evenodd;clip-rule:evenodd;stroke-linejoin:round;stroke-miterlimit:2;"><path d="M22.827,62.664c-13.197,-3.949 -22.827,-16.191 -22.827,-30.664c0,-17.661 14.339,-32 32,-32c17.661,0 32,14.339 32,32c0,14.306 -9.408,26.431 -22.367,30.522c-0.84,-0.483 -1.408,-1.291 -1.633,-2.522c-0.024,-2.579 -0.179,-13.667 -0.991,-13.996l-0.009,-0.004c8.666,-2.283 15,-8.535 15,-16c0,-3.906 -1.1,-8.047 -3.966,-10.966l-0.034,-0.034c1.01,-3.345 0.496,-6.285 -1,-9c-3.425,-0.029 -6.334,1.495 -8.939,3.942l-0.061,0.058c-2.468,-1.553 -13.499,-1.477 -15.943,-0.017l-0.057,0.017c-1.132,-2.018 -7.161,-4.627 -9,-4c-2.179,2.412 -2.622,5.366 -1.019,8.958l0.019,0.042c-3.158,3.158 -3.788,7.688 -4,11c-0.479,7.479 8.468,16.074 15.914,16.001c0.029,-0.008 0.057,-0.009 0.086,-0.001c-0.028,0.001 -0.057,0.001 -0.086,0.001c-0.498,0.151 -0.961,2.743 -0.914,3.999c-4.829,2.793 -9.222,-1.015 -11,-4c-0.958,-1.608 -6.049,-2.633 -6,-1c0.039,1.282 3.179,2.756 4,5c1.416,3.869 9.396,8.873 13,5l0,5c-0.335,1.337 -1.063,2.22 -2.173,2.664Z" style="fill:#b23e3e;"/></svg>