<svg xmlns="http://www.w3.org/2000/svg" fill-rule="evenodd" stroke-linejoin="round" stroke-miterlimit="2" clip-rule="evenodd" viewBox="0 0 64 64"><path fill="#b23e3e" d="M22.827 62.664C9.63 58.715 0 46.473 0 32 0 14.339 14.339 0 32 0s32 14.339 32 32c0 14.306-9.408 26.431-22.367 30.522-.84-.483-1.408-1.291-1.633-2.522-.024-2.579-.179-13.667-.991-13.996L39 46c8.666-2.283 15-8.535 15-16 0-3.906-1.1-8.047-3.966-10.966L50 19c1.01-3.345.496-6.285-1-9-3.425-.029-6.334 1.495-8.939 3.942L40 14c-2.468-1.553-13.499-1.477-15.943-.017L24 14c-1.132-2.018-7.161-4.627-9-4-2.179 2.412-2.622 5.366-1.019 8.958L14 19c-3.158 3.158-3.788 7.688-4 11-.479 7.479 8.468 16.074 15.914 16.001A.157.157 0 0126 46l-.086.001c-.498.151-.961 2.743-.914 3.999-4.829 2.793-9.222-1.015-11-4-.958-1.608-6.049-2.633-6-1 .039 1.282 3.179 2.756 4 5 1.416 3.869 9.396 8.873 13 5v5c-.335 1.337-1.063 2.22-2.173 2.664z"/></svg>