<svg viewBox="0 0 400 400" xmlns="http://www.w3.org/2000/svg" fill-rule="evenodd" clip-rule="evenodd" stroke-linejoin="round" stroke-miterlimit="2"><path d="M200 0c110.383 0 200 89.617 200 200s-89.617 200-200 200S0 310.383 0 200 89.617 0 200 0zm8.73 131.369l42.524.081 30.772 63.511 69.015-37.475-.128 34.856-55.708 32.635 27.371 59.611s-32.541 1.028-40.609-.053c-3.341-.448-6.231-3.452-7.8-6.435-3.621-6.886-13.925-34.879-13.925-34.879s-76.971 41.56-110.558 41.301c-1.77-.013-41.974 1.905-55.134-2.565-23.679-8.043-27.914-13.727-35.349-24.788-7.436-11.062-12.454-27.744-9.266-41.582 1.641-7.128 4.951-21.637 11.619-30.06 9.213-11.637 27.495-29.495 43.658-39.763 23.028-14.63 49.841-16.102 62.818-16.461 8.461-.234 13.73 30.848 13.73 30.848s-19.018-.52-27.736 2.687c-4.897 1.802-15.018 5.968-22.155 9.723-7.91 4.163-17.438 9.328-25.306 15.253-8.251 6.213-18.323 13.648-24.202 22.028-5.81 8.281-13.734 20.604-11.074 28.253 2.659 7.649 8.719 15.27 27.032 17.641 17.658 2.286 28.097.814 41.923-1.264 14.382-2.162 30.064-6.293 44.37-11.705 18.004-6.811 44.905-18.778 63.656-29.163l-19.233-47.673-25.862 55.417c-13.703 13.722-31.769 19.495-52.079 21.177l57.636-111.156zm142.153-16.398l-.024 27.117s-43.793 25.151-54.757 29.644c-3.499 1.434-8.45.085-11.021-2.688-3.1-3.342-7.578-17.369-7.578-17.369 25.176-8.99 49.227-23.075 73.38-36.704z" fill="#222834"/></svg>