<svg viewBox="0 0 834 834" xmlns="http://www.w3.org/2000/svg" fill-rule="evenodd" fill="#222834" clip-rule="evenodd" stroke-linejoin="round" stroke-miterlimit="2"><path d="M416.667 0c229.964 0 416.666 186.702 416.666 416.667 0 229.964-186.702 416.666-416.666 416.666C186.702 833.333 0 646.631 0 416.667 0 186.702 186.702 0 416.667 0zm-200 637.5c18.066 24.862 40.139 31.29 87.5 29.167 35.6-1.596 63.323-3.852 114.67-8.334 51.347-4.481 93.672-6.805 126.996-25 32.059-17.503 69.575-31.231 83.334-62.5 15.277-34.722 30.58-51.146 8.333-120.833s-17.992-118.032-20.833-137.5c-2.842-19.468-13.433-82.97-70.834-120.833-24.65-16.261-48.748-31.559-71.907-38.803-30.768-9.624-59.879-8.219-86.426-7.031-44.681 2.001-90.972 30.556-120.833 58.334-29.861 27.777-47.917 69.444-58.334 108.333-10.416 38.889 1.342 61.376-4.166 125 0 0-7.428 37.861-8.398 79.996-.929 40.364 2.831 95.142 20.898 120.004zm150-387.5c43.693 0 79.166 48.543 79.166 108.333 0 59.791-35.473 108.334-79.166 108.334-43.694 0-79.167-48.543-79.167-108.334 0-59.79 35.473-108.333 79.167-108.333zm179.166 12.5c32.195 0 58.334 38.274 58.334 85.417 0 47.142-26.139 85.416-58.334 85.416-32.195 0-58.333-38.274-58.333-85.416 0-47.143 26.138-85.417 58.333-85.417z"/></svg>