<svg version="1.0" xmlns="http://www.w3.org/2000/svg" width="346.667" height="346.667" viewBox="0 0 260 260" fill="#222834"><path d="M115.6 1C84.7 4.9 59.5 17.2 38 38.9 22.4 54.6 13.1 69.8 6.6 90 1.8 104.8.5 113.3.5 130c0 16.3 1.3 25.1 5.7 39 10.3 32.5 33.9 60.6 63.8 75.9 9.8 5 23.9 10.5 24.8 9.7.2-.3-2.1-11.4-5.1-24.8C74.1 162.4 65 112.4 65 95.8c.1-17.2 7.4-29 22.2-36.2l7-3.4-10.6-.7c-5.8-.4-11.2-.5-12.1-.1-1 .3-1.5 0-1.5-1.2.1-2.7 2.5-5.3 7.5-7.7l4.6-2.2-4.8-1.8c-8.8-3.3-7.5-3.7 9.7-3.3 14.9.4 17.3.7 24.8 3.3 4.6 1.5 10.8 4.5 13.8 6.7 3 2.1 8.3 4.7 11.7 5.9 12.3 4.1 21 11.2 28 23 6.2 10.5 8.9 20.4 9.5 34.6.4 10.5.7 12.3 2.1 12.3.9 0 9-2.3 18.1-5.1 17.6-5.4 23.3-5.9 28.7-2.4 5.9 3.9 3.3 7.4-11.1 14.4-20.4 10-37.7 14.6-51 13.5-10.5-.8-15.6.9-15.6 5.5 0 4.7.9 6 6.2 8.7 9.2 4.7 20.7 4.8 43.2.5 15-2.9 19.6-2.7 19.6.8 0 2.4-3.5 5.4-10.5 8.9-8.9 4.5-13.9 5.6-25 5.5-13.5 0-27.1-2.9-40.7-8.8-1.6-.6-1.8 0-1.8 5.3 0 7.9 2.3 19.9 6 30.8 1.6 4.9 3 8.9 3 8.9s-2.1-.1-4.6-.3c-2.7-.3-6.3.3-9 1.3l-4.5 1.7-8.3-3.6c-10.2-4.3-16.7-6.1-19.1-5.2-1.6.6-1.7 1.7-1.2 13.4.7 13.2 2.5 22.5 5.1 25 1.9 2 4.5 1.2 14.1-4.3 6.8-3.9 8.4-4.4 10.3-3.5 5.5 2.5 15.4.5 18.8-3.7 2-2.5 2.3-2.6 4.3-1.3 1.2.8 4.4 6.4 7.2 12.5 2.7 6 5.1 11 5.3 11.2.1.2 3.2-.6 6.7-1.8 32.2-10.5 61-36.1 75.8-67.2 8.4-17.7 12.2-34.9 12.2-55.7 0-14.9-1.7-26.5-5.7-39.1-14.2-45.1-53-79.5-99.4-88.3C144 .7 124.6-.1 115.6 1z"/><path d="M148 77.7c-1.9.7-5 3.4-5 4.3 0 .4 2 0 4.4-.8 3.6-1.3 5.3-1.4 8.5-.6 4.8 1.3 4.4-.1-.5-2.2-3.5-1.5-4.9-1.6-7.4-.7zM81.1 82.7c-1.7 1.6-3.2 4.3-3.6 6.3l-.6 3.5 2.2-3.3c2.9-4.4 6.7-6.2 13.1-6.3l5.3-.1-3.5-1.3c-5.7-2.2-9.6-1.8-12.9 1.2zM151.5 99.5c-4.5 4.4-2.5 11.7 3.5 13 3.7.8 7.6-1.4 9.1-5.2 2.9-7.6-6.8-13.6-12.6-7.8zm10.3 2.2c.5 1.7-2.6 2.9-4 1.5-.6-.6-.7-1.5-.3-2.2.9-1.4 3.7-.9 4.3.7zM92.5 101.9c-5.9 2.5-7.7 10.1-3.4 14.7 3.2 3.4 9.6 3.4 12.9-.1 3.6-3.8 3.3-9-.8-12.6-3.3-3-5.2-3.4-8.7-2zm8.5 5c0 2.7-1.9 3.6-3.7 1.8-1.8-1.8-.9-3.7 1.8-3.7 1.2 0 1.9.7 1.9 1.9z"/></svg>