<svg xmlns="http://www.w3.org/2000/svg" viewBox="0 0 122.88 104.36" fill="#222834"><path d="M47.07 96.74c1.83 0 3.32 1.65 3.32 3.68 0 2.03-1.48 3.68-3.32 3.68h-9.35c-1.83 0-3.32-1.65-3.32-3.68 0-2.03 1.48-3.68 3.32-3.68h9.35zM14.3 67.94a3.678 3.678 0 01-4.72 5.64c-1.68-1.4-3.15-2.99-4.4-4.72C1.84 64.25.04 58.63 0 53.03c-.04-5.66 1.72-11.29 5.52-15.85 1.23-1.48 2.68-2.84 4.34-4.04 1.93-1.4 4.14-2.58 6.64-3.55 1.72-.67 3.56-1.23 5.5-1.68 2.2-8.74 6.89-15.47 12.92-20.14C40.56 3.4 47.35.85 54.34.18c6.96-.67 14.12.51 20.55 3.6C81.91 7.15 88.03 12.76 92 20.65c1.6-.25 3.2-.38 4.79-.36 6.72.05 13.2 2.45 18.3 7.95 1.07 1.15 2.08 2.45 3.02 3.9 3.2 4.92 4.84 11.49 4.77 17.92-.07 6.31-1.77 12.59-5.25 17.22a3.67 3.67 0 11-5.87-4.41c2.5-3.33 3.73-8.04 3.78-12.87.06-5.07-1.18-10.16-3.59-13.86-.69-1.07-1.45-2.03-2.25-2.89-3.61-3.89-8.19-5.59-12.95-5.62-3.46-.02-7.02.81-10.41 2.31-.75.37-1.5.77-2.25 1.21-2.25 1.32-4.47 2.93-6.74 4.78l-4.84-5.54c1.67-1.55 3.48-2.96 5.4-4.21 1.53-1 3.13-1.88 4.77-2.65.66-.33 1.33-.64 2-.93-3.19-5.65-7.78-9.7-12.98-12.2-5.2-2.49-11.02-3.45-16.69-2.9-5.63.54-11.1 2.59-15.62 6.1-5.23 4.06-9.2 10.11-10.73 18.14l-.48 2.51-2.5.44c-2.45.43-4.64 1.02-6.56 1.77-1.86.72-3.52 1.61-4.97 2.66-1.16.84-2.16 1.78-3.01 2.8-2.63 3.15-3.85 7.1-3.82 11.1a20.07 20.07 0 003.79 11.53 20.07 20.07 0 003.19 3.39zm17.97 4.09c-1.49 0-2.69-1.65-2.69-3.68 0-2.03 1.2-3.68 2.69-3.68h66.56c1.49 0 2.69 1.65 2.69 3.68 0 2.03-1.2 3.68-2.69 3.68H32.27zM20.38 87.54c-1.83 0-3.32-1.65-3.32-3.68s1.48-3.68 3.32-3.68H72.9c1.83 0 3.32 1.65 3.32 3.68s-1.48 3.68-3.32 3.68H20.38zm69.02 0c-1.83 0-3.32-1.65-3.32-3.68s1.48-3.68 3.32-3.68h11.82c1.83 0 3.32 1.65 3.32 3.68s-1.48 3.68-3.32 3.68H89.4zm19.87 9.49c1.82.01 3.3 1.66 3.29 3.68-.01 2.03-1.49 3.66-3.32 3.66l-46.97-.27c-1.82-.01-3.3-1.66-3.29-3.68.01-2.03 1.49-3.66 3.32-3.66l46.97.27z"/></svg>