<svg viewBox="0 0 400 400" xmlns="http://www.w3.org/2000/svg" fill-rule="evenodd" clip-rule="evenodd" stroke-linejoin="round" stroke-miterlimit="2"><path d="M200 0c110.383 0 200 89.617 200 200s-89.617 200-200 200S0 310.383 0 200 89.617 0 200 0zM73.518 123.497c-2.221-3.528-26.189 50.27-18.541 96.88 8.45 51.499 31.909 66.293 31.909 66.293l81.504-.182 99.562-173.158-84.54.156-57.916 99.564-51.978-89.553zm189.288 54.038l-37.643 66.204 32.648-.099-24.476 42.822 80.396-.143s29.706-41.625 31.868-65.942c5.922-66.59-18.561-96.793-18.561-96.793l-30.651 53.862-33.581.089z" fill="#222834"/></svg>