<svg viewBox="0 0 834 834" xmlns="http://www.w3.org/2000/svg" fill-rule="evenodd" fill="#222834" clip-rule="evenodd" stroke-linejoin="round" stroke-miterlimit="2"><path d="M416.667 0c229.964 0 416.666 186.702 416.666 416.667 0 229.964-186.702 416.666-416.666 416.666C186.702 833.333 0 646.631 0 416.667 0 186.702 186.702 0 416.667 0zm-194.5 466.837l-.791 184.83a21.159 21.159 0 0021.159 21.25h348.569a20.944 20.944 0 0020.944-20.945V466.837c-52.45 45.881-108.125 85.788-165.639 121.496a55.705 55.705 0 01-58.628-.092c-68.927-42.781-123.606-83.031-165.614-121.404zm.004-137.772c.678-111.597 87.766-201.982 194.937-201.982 107.59 0 194.94 91.094 194.94 203.295v86.331c0 22.757-152.239 144.813-194.94 144.813-42.701 0-190.732-122.442-194.941-144.813-1.985-10.555 0-86.331 0-86.331l.004-1.313zm308.142 1.313l.461 26.332-226.954 1.517.083-27.849c0-10.026 1.201-19.762 3.462-29.059 12.428-51.125 56.878-88.997 109.743-88.997 22.697 0 43.844 6.981 61.571 18.996 31.069 21.056 51.634 57.574 51.634 99.06z"/></svg>