<svg viewBox="0 0 834 834" xmlns="http://www.w3.org/2000/svg" fill-rule="evenodd" fill="#222834" clip-rule="evenodd" stroke-linejoin="round" stroke-miterlimit="2"><path d="M416.667 0c229.964 0 416.666 186.702 416.666 416.667 0 229.964-186.702 416.666-416.666 416.666C186.702 833.333 0 646.631 0 416.667 0 186.702 186.702 0 416.667 0zm-243.75 235.688c0-23.898 19.373-43.271 43.271-43.271h401.71a42.515 42.515 0 0142.519 42.518v317.063c-24.772-123.04-218.242-146.241-234-149.956-15.759-3.716-39.286-7.495-43.875-14.625-4.59-7.131 10.555-13.586 39-14.625 28.444-1.04 57.494-5.759 63.375-9.75 5.88-3.992 14.27-10.043 9.75-19.5-4.52-9.458-29.25-14.625-29.25-14.625 28.829 12.501 24.375 19.5 24.375 19.5.667 16.606-58.5 14.625-58.5 14.625-42.307.287-58.5 4.875-58.5 4.875-62.187 15.957-29.25 34.125-29.25 34.125l73.125 34.125c45.374 25.031 42.554 45.244 14.625 82.875-27.93 37.631-258.375 121.875-258.375 121.875V235.688z"/></svg>