<svg viewBox="0 0 534 534" xmlns="http://www.w3.org/2000/svg" fill-rule="evenodd" clip-rule="evenodd" stroke-linejoin="round" stroke-miterlimit="2" fill="#222834"><path d="M175.556 517.337C73.183 480.071 0 381.848 0 266.667 0 119.489 119.489 0 266.667 0c147.177 0 266.666 119.489 266.666 266.667 0 125.498-86.88 230.864-203.74 259.185L312.5 491.667c-19.063 4.786-32.54 4.404-41.667 0-15.311 11.875-31.988 20.181-50 25-11.041-16.974-12.847-49.127-8.333-91.667 5.902-5.051 28.026 2.93 62.5 20.833 1.372-4.124 5.432-6.952 12.5-8.333-10.974-31.038-14.996-63.002-12.5-95.833 31.823 19.933 69.278 29.735 112.5 29.166 29.953-2.016 53.515-11.799 70.833-29.166 2.241-5.611-.691-8.301-8.333-8.334-17.001-1.374-45.382 5.703-87.5 12.5-18.683-.116-34.105-4.111-45.833-12.5-14.395-9.696-13.463-15.31-4.167-25 5.345-5.359 29.53-4.833 54.167-4.166 28.74-2.514 102.777-34.723 116.666-45.834 10.682-8.545-15.23-22.754-33.333-20.833l-83.333 25C371.312 167.894 336.725 118.358 275 100c-33.955-40.195-83.302-50.067-141.667-41.667l25 8.334-29.166 25c25.938-2.216 53.635-.986 83.333 4.166-26.637 5.01-47.69 13.217-62.5 25-24.723 17.544-37.223 43.933-37.5 79.167 16.804 103.667 40.37 216.46 63.056 317.337zm16.111-313.17c11.498 0 20.833 9.335 20.833 20.833 0 11.498-9.335 20.833-20.833 20.833-11.499 0-20.834-9.335-20.834-20.833 0-11.498 9.335-20.833 20.834-20.833zm139.583-8.334c10.348 0 18.75 8.402 18.75 18.75 0 10.349-8.402 18.75-18.75 18.75s-18.75-8.401-18.75-18.75c0-10.348 8.402-18.75 18.75-18.75zm-133.333 20.834c3.449 0 6.25 2.8 6.25 6.25a6.254 6.254 0 01-6.25 6.25 6.253 6.253 0 01-6.25-6.25c0-3.45 2.8-6.25 6.25-6.25zm138.958-9.584a5.628 5.628 0 015.625 5.625 5.627 5.627 0 01-5.625 5.625 5.627 5.627 0 01-5.625-5.625 5.628 5.628 0 015.625-5.625zM154.167 187.5c5.383-19.103 19.214-26.131 41.666-20.833-6.781-5.178-22.222-11.806-29.166-8.334-6.945 3.473-15.388 17.721-12.5 29.167zm144.999-20.833c13.116-10.594 27.378-9.636 42.501 0-2.379-6.09-17.917-16.667-25-16.667-7.084 0-16.659 9.732-17.501 16.667z" /></svg>