<svg viewBox="0 0 200 200" xmlns="http://www.w3.org/2000/svg" fill-rule="evenodd" clip-rule="evenodd" stroke-linejoin="round" stroke-miterlimit="2" fill="#222834"><path d="M100 0c55.192 0 100 44.808 100 100s-44.808 100-100 100S0 155.192 0 100 44.808 0 100 0zm42.257 115.575h-40.174V87.5h70.834l3.205-.029s.961 8.266.961 12.529c0 43.693-34.54 79.167-77.083 79.167S22.917 143.693 22.917 100c0-43.693 34.54-79.167 77.083-79.167 20.791 0 39.671 8.473 53.542 22.236l-22.547 23.598c-8.06-7.908-18.979-12.768-30.995-12.768-24.774 0-44.888 20.657-44.888 46.101S75.226 146.101 100 146.101c19.453 0 36.033-12.737 42.257-30.526z"/></svg>