<svg viewBox="0 0 512 512" xmlns="http://www.w3.org/2000/svg" fill-rule="evenodd" clip-rule="evenodd" stroke-linejoin="round" stroke-miterlimit="2"><path d="M80 419c166.008 10.245 293.533 7.721 318-29-30.423 61.764-76.731 87.911-136 85-95.161 19.886-148.537-6.929-182-56z" fill="#ff837a"/><path d="M398 390l-22-13c-12.307 59.889-165.176 45.087-296 42 138.782 4.742 285.167 12.825 318-29z" fill="#222835"/><path d="M383 357c-1.481 46.681-61.03 63.59-140.147 66.086C181.364 425.026 108.055 418.261 41 410c-24.997-21.429-32.603-40.78-38-73 26.168 33.097 191.17 25.869 380 20z" fill="#e89d4a"/><path d="M383 357c-100.436 4.732-200.099 5.21-294-26-7.544-5.866-11.348-17.538-14-31-23.894.885-46.171 6.035-67 15-5.866 6.213-7.419 14.261-5 24 11.542 6.744 26.853 11.778 45.12 15.47 78.511 15.869 211.634 6.959 334.88 2.53z" fill="#222835"/><path d="M74 289c1.36 17.141 5.568 32.022 15 42.761 130.838 36.218 262.796 39.202 396 5.239l19-68c-41.448 58.916-228.863 42.976-430 20z" fill="#9193b1"/><path d="M504 269c.591-10.699-24.351-20.075-58-29l-12.984 4C417.842 317.792 229.919 294.082 75 289c179.632 15.36 374.816 41.662 429-20z" fill="#222835"/><path d="M5 185C.287 212.376.854 237.615 6 261c31.581 14.826 56.116 26.72 91.343 28.759C256.991 299.002 434.939 306.96 433 243c-201.827 7.469-406.773 16.35-428-58z" fill="#9ab899"/><path d="M5 185c9.537-16.535 45.148-24.743 90-30l5 3c-9.311 13.234-13.565 25.802-15 38 164.029 77.285 396.636 51.352 425 8-96.21 74.454-348.348 56.302-455.587 17.704C23.535 210.59 4.67 197.781 5 185z" fill="#222835"/><path d="M100 158c-8.486 13.092-13.097 25.711-15 38 171.032 64.805 319.893 84.013 423 9.123L489 130c-31.894 72.626-217.505 45.744-389 28z" fill="#ff837a"/><path d="M489 130c-12.29-17.066-41.544-22.476-75-25 9.362 8.33 16.317 16.228 17 23 5.709 35.983-77.456 40.014-141.484 46 90.327 4.851 175.64 5.596 199.484-44z" fill="#222835"/><path d="M414 105c-15.95-28.885-52.291-46.565-100-58-33 2.599-66-3.171-99-15-97.48 3.085-144.513 43.341-172 98 41.567 28.826 111.32 33.949 171.398 38.398C334.527 177.293 456.862 163.129 414 105z" fill="#e89d4a"/><path d="M269.516 3c-12.112 22.185-21.194 45.38-26 70l15-4c7.172-20.947 11.881-43.929 31-55V9c-5.504-1.745-9.741-4.849-13-9l-7 3z" fill="#222835"/></svg>