<svg xmlns="http://www.w3.org/2000/svg" viewBox="0 0 512.001 512.001" fill="#9ab899"><path d="M435.827 17.45l-2.399-14.879L418.47.723C417.872.648 412.374 0 403.632 0c-28.593 0-83.096 6.534-126.859 50.298-.237.237-.462.477-.696.713V20.077h-40.155v64.508c6.908 3.385 13.626 7.21 20.077 11.507 28.38-18.898 61.71-29.168 95.368-29.168 21.67 0 43.372 4.042 64.503 12.014 5.539 2.088 10.898 4.467 16.103 7.069 8.751-36.467 4.188-66.481 3.854-68.557zM401.699 116.507c-16.587-6.256-33.518-9.428-50.331-9.428-36.411 0-70.032 14.608-95.368 40.806-25.336-26.198-58.958-40.806-95.37-40.806-16.811 0-33.745 3.172-50.33 9.428-52.531 19.818-82.66 67.606-82.66 131.113 0 112.118 60.196 203.499 119.877 244.362 18.782 13.097 41.974 20.02 67.073 20.02 13.859 0 28.031-2.21 41.41-6.426 13.378 4.215 27.55 6.426 41.41 6.426h.007c25.093 0 48.281-6.921 67.061-20.014 57.756-39.539 119.884-132.846 119.884-244.366-.002-63.509-30.13-111.297-82.663-131.115z"/></svg>